# xmcd CD database file
# Copyright (C) 1993-1998 Ti Kan
# 
# Track frame offsets:
#     150
#     14230
#     25230
#     35367
#     47252
#     58852
#     68482
#     81300
#     92637
#     102930
#     114912
#     128800
#     143170
# 
# Disc length: 1922 seconds
# 
# Revision: 1
# Processed by: cddbd v1.4b41PL1 Copyright (c) Steve Scherf et al.
# Submitted via: DiscPlay 4.0.4
# 
DISCID=a707800d
DTITLE=Little Anthony And The Imperials - The Best Of Little Anthony And The
DTITLE=Imperials
DYEAR=1900
DGENRE=
TTITLE0=I'm On Outside (Looking In)
TTITLE1=Goin' Out Of My Head
TTITLE2=Hurt So Bad
TTITLE3=Take Me Back (Single Version)
TTITLE4=I Miss You
TTITLE5=Hurt
TTITLE6=Better Use Your Head
TTITLE7=Gonna Fix You Good (Everytime You're Bad)
TTITLE8=It's Not The Same
TTITLE9=Out Of Sight, Out Of Mind
TTITLE10=The Ten Commandments Of Love
TTITLE11=Help Me Find A Way (To Say I love You)
TTITLE12=Careful Driving Spot
EXTD=
EXTT0=
EXTT1=
EXTT2=
EXTT3=
EXTT4=
EXTT5=
EXTT6=
EXTT7=
EXTT8=
EXTT9=
EXTT10=
EXTT11=
EXTT12=
PLAYORDER=
